<svg width="88" height="68" viewBox="0 0 88 68" fill="none" xmlns="http://www.w3.org/2000/svg">
<path d="M73.4937 0.109232C73.3356 0.177505 66.5912 6.8273 53.5493 19.7787C42.7075 30.5386 33.8112 39.3321 33.77 39.3185C33.715 39.298 28.4968 34.4028 17.4418 23.998C16.1287 22.7554 14.9256 21.6699 14.7812 21.5879C14.4443 21.3831 14.0318 21.3763 13.5368 21.547C13.0693 21.7108 13.2825 21.506 6.0087 28.8795C2.12433 32.8189 0.213076 34.8056 0.130576 34.99C-0.0275488 35.3245 -0.0344238 35.5566 0.109951 35.9048C0.192451 36.1165 2.16558 38.0076 9.40495 44.8281C17.4625 52.4201 19.4837 54.359 25.7812 60.5992C33.1443 67.8976 33.2475 67.9932 33.7562 68C33.8525 68 34.0106 67.9454 34.1068 67.8771C34.65 67.5221 48.5512 53.8606 66.88 35.6795C83.2631 19.4169 87.6975 14.9859 87.8281 14.7197C88.0137 14.351 88.0412 14.0438 87.9244 13.6205C87.8625 13.3815 86.9619 12.4598 81.2762 6.80682C76.8281 2.38955 74.6075 0.225296 74.415 0.136541C74.085 -0.0273141 73.8237 -0.0341414 73.4937 0.109232Z" fill="white"/>
</svg>
